# xmcd
# 
# Track frame offsets:
#     150
#     3527
#     40788
#     51034
#     65451
#     77302
#     94223
#     111175
#     124325
#     142042
#     152145
#     170641
#     183685
#     211969
# 
# Disc length: 2971
# 
# Revision: 0
# Processed by: cddbd v1.5.2PL0 Copyright (c) Steve Scherf et al.
# Submitted via: fre:ac v1.0.17
# 
DISCID=c20b990e
DTITLE=The Carpenters - Christmas Collection [Disc 2]
DYEAR=1998
DGENRE=Holiday
TTITLE0=It Came Upon a Midnight Clear
TTITLE1=Overture: Happy Holiday - The First Noel - March of the Toys - Little Jesus - I Saw Mommy Kissing Santa Claus - O Little Town ...
TTITLE2=An Old-Fashioned Christmas
TTITLE3=O Holy Night
TTITLE4=(There's No Place Like) Home for the Holidays
TTITLE5=Medley: Here Comes Santa Claus - Frosty the Snowman - Rudolph the Red-Nosed Reindeer - Good King Wenceslas
TTITLE6=Little Altar Boy
TTITLE7=Do You Hear What I Hear?
TTITLE8=My Favorite Things
TTITLE9=He Came Here for Me
TTITLE10=Santa Claus Is Coming to Town
TTITLE11=What are You Doing New Year's Eve?
TTITLE12=Selections from 'The Nutcracker': Overture Miniature - Dance of the Sugar Plum Fairy - Trepak - Valse des Fleurs
TTITLE13=I Heard the Bells on Christmas Day
EXTD=2 Disc-Set "Carpenters Christmas" Collection (Christmas Portrait and An Old-Fashioned Christmas]\n
EXTT0=
EXTT1=
EXTT2=
EXTT3=
EXTT4=
EXTT5=
EXTT6=
EXTT7=
EXTT8=
EXTT9=
EXTT10=
EXTT11=
EXTT12=
EXTT13=
PLAYORDER=
